<?xml version="1.0" standalone="no"?>
<!DOCTYPE svg PUBLIC "-//W3C//DTD SVG 20010904//EN"
 "http://www.w3.org/TR/2001/REC-SVG-20010904/DTD/svg10.dtd">
<svg version="1.0" xmlns="http://www.w3.org/2000/svg"
 width="1080.000000pt" height="1080.000000pt" viewBox="0 0 1080.000000 1080.000000"
 preserveAspectRatio="xMidYMid meet">
<metadata>
Created by potrace 1.11, written by Peter Selinger 2001-2013
</metadata>
<g transform="translate(0.000000,1080.000000) scale(0.100000,-0.100000)"
fill="#000000" stroke="none">
<path d="M4820 10108 c-25 -5 -88 -11 -140 -14 -121 -6 -141 -10 -134 -29 7
-17 -11 -21 -114 -30 -41 -3 -82 -10 -92 -15 -10 -6 -41 -10 -69 -10 -27 0
-53 -4 -56 -10 -3 -5 -27 -10 -53 -10 -53 0 -78 -12 -67 -30 10 -17 -13 -30
-55 -30 -19 0 -46 -7 -60 -15 -14 -8 -36 -15 -50 -15 -45 -1 -105 -27 -108
-47 -3 -18 -39 -32 -127 -50 -16 -3 -43 -14 -60 -24 -16 -11 -40 -19 -52 -19
-16 0 -23 -6 -23 -20 0 -21 -45 -50 -78 -50 -11 0 -25 -6 -32 -14 -6 -8 -21
-16 -33 -18 -14 -2 -23 -11 -25 -25 -2 -15 -10 -23 -24 -23 -11 0 -39 -13 -62
-28 -22 -15 -49 -31 -58 -35 -10 -3 -18 -13 -18 -20 0 -15 -72 -77 -90 -77
-25 0 -69 -41 -72 -68 -2 -20 -9 -28 -28 -30 -31 -5 -70 -39 -70 -63 0 -32
-12 -49 -35 -49 -25 0 -55 -37 -55 -68 0 -22 -37 -59 -65 -64 -12 -2 -21 -13
-23 -27 -2 -13 -15 -41 -28 -62 -13 -21 -24 -48 -24 -59 0 -11 -9 -24 -20 -28
-21 -8 -60 -75 -60 -102 0 -9 -5 -21 -11 -27 -7 -7 -15 -29 -18 -50 -5 -29
-11 -37 -24 -35 -12 2 -19 -6 -23 -28 -4 -17 -11 -33 -15 -36 -5 -3 -9 -15 -9
-27 0 -13 -9 -40 -20 -62 -11 -22 -20 -56 -20 -77 0 -32 -4 -40 -25 -48 -22
-8 -25 -16 -25 -57 -1 -27 -7 -66 -15 -88 -8 -22 -15 -62 -15 -88 0 -27 -4
-56 -9 -66 -5 -9 -11 -53 -12 -96 -3 -96 -6 -105 -30 -105 -21 0 -26 -22 -33
-163 -3 -53 -9 -103 -13 -110 -4 -6 -10 -250 -13 -542 l-5 -530 -95 -3 c-101
-2 -165 -23 -155 -51 7 -18 -13 -41 -35 -41 -23 0 -60 -46 -60 -74 0 -11 -7
-30 -15 -40 -8 -11 -15 -37 -15 -58 0 -31 -4 -38 -20 -38 -12 0 -21 -8 -24
-22 -21 -102 -25 -372 -8 -553 5 -60 10 -111 11 -113 1 -2 9 -2 19 0 14 3 18
-7 22 -62 3 -36 9 -72 15 -80 5 -8 12 -35 16 -60 18 -108 35 -165 51 -168 11
-2 19 -18 23 -45 4 -23 11 -48 15 -57 16 -33 42 -117 47 -148 4 -23 13 -36 29
-42 16 -7 24 -17 24 -34 0 -14 13 -44 28 -68 15 -24 32 -56 37 -72 6 -16 18
-33 28 -37 9 -5 25 -13 34 -17 9 -5 20 -15 23 -23 4 -8 12 -24 18 -35 6 -13
13 -128 17 -290 7 -309 10 -337 35 -329 20 6 30 -18 30 -75 0 -32 8 -72 40
-203 9 -36 18 -51 36 -57 17 -7 24 -17 24 -37 0 -16 9 -41 20 -58 11 -16 20
-39 20 -50 1 -25 33 -65 54 -65 9 0 19 -15 26 -37 12 -44 52 -93 75 -93 8 0
15 -7 15 -16 0 -9 13 -33 29 -53 16 -20 31 -47 33 -61 2 -15 11 -26 24 -30 34
-8 82 -53 85 -80 3 -14 12 -26 25 -30 29 -7 94 -66 94 -85 0 -8 7 -15 16 -15
10 0 36 -16 60 -35 24 -20 48 -34 55 -33 7 2 15 -6 17 -16 5 -23 43 -56 81
-72 51 -20 90 -49 93 -69 2 -12 12 -21 27 -23 13 -2 41 -14 61 -27 20 -13 48
-25 61 -27 14 -2 25 -11 27 -23 5 -26 41 -54 70 -55 13 0 35 -9 49 -20 14 -11
36 -20 49 -20 17 0 24 -6 24 -19 0 -22 41 -51 76 -55 36 -4 94 -39 91 -55 -1
-9 11 -19 34 -25 l35 -11 -45 -22 c-25 -12 -54 -24 -63 -27 -10 -3 -18 -15
-18 -26 0 -17 -6 -20 -39 -20 -22 0 -44 -6 -51 -15 -7 -8 -21 -15 -33 -15 -28
0 -84 -37 -90 -60 -3 -12 -14 -20 -27 -20 -12 0 -39 -13 -60 -30 -21 -16 -45
-30 -54 -30 -9 0 -16 -8 -16 -18 0 -20 -69 -92 -88 -92 -7 0 -12 -8 -12 -18 0
-9 -9 -34 -20 -55 -11 -20 -20 -47 -20 -59 -1 -13 -7 -34 -15 -48 -8 -14 -14
-37 -15 -52 0 -16 -1 -28 -2 -28 -2 0 -57 -5 -123 -11 -211 -17 -269 -24 -292
-37 -12 -7 -37 -12 -55 -12 -50 0 -108 -12 -108 -21 0 -5 8 -9 18 -10 38 -2
-35 -17 -89 -18 -32 -1 -63 -7 -75 -16 -10 -8 -33 -15 -50 -15 -16 0 -39 -7
-50 -15 -10 -8 -31 -15 -46 -15 -40 0 -58 -10 -58 -31 0 -12 -7 -19 -19 -19
-11 0 -23 -5 -26 -10 -3 -5 -17 -10 -29 -10 -13 0 -30 -7 -37 -16 -7 -9 -23
-20 -36 -25 -15 -5 -21 -14 -17 -24 5 -11 -2 -17 -25 -21 -54 -11 -66 -64 -15
-64 17 0 27 -8 34 -25 5 -14 16 -25 24 -25 7 0 19 -7 26 -15 7 -8 25 -15 41
-15 16 0 37 -4 47 -9 9 -5 25 -12 35 -15 9 -3 17 -15 17 -26 0 -14 7 -20 23
-20 12 0 36 -9 52 -20 17 -11 38 -20 48 -20 9 0 36 -9 60 -19 23 -11 53 -21
67 -23 15 -2 30 -13 38 -30 8 -17 24 -30 40 -34 26 -5 42 -11 95 -34 12 -5 35
-11 52 -12 21 -2 34 -11 43 -31 11 -23 19 -27 52 -27 21 0 42 -5 45 -10 3 -6
22 -10 40 -10 24 0 38 -6 45 -20 6 -11 20 -20 31 -20 12 0 23 -8 26 -20 5 -19
13 -21 68 -25 35 -2 134 -37 146 -51 7 -8 31 -14 60 -14 42 0 48 -3 51 -22 2
-19 10 -23 43 -25 22 -2 49 -8 60 -13 19 -9 106 -24 230 -38 49 -6 60 -11 64
-27 5 -28 19 -35 76 -35 28 0 57 -6 63 -13 7 -7 53 -15 105 -19 51 -3 133 -11
182 -17 50 -5 98 -10 108 -10 10 -1 17 -9 17 -21 0 -11 1 -21 3 -21 6 -3 271
-19 453 -27 111 -5 206 -12 212 -15 17 -11 361 -14 537 -5 94 5 249 13 345 18
163 8 442 26 448 29 1 1 2 10 2 21 0 23 17 28 120 34 101 5 262 24 280 33 8 3
44 9 80 12 58 5 65 8 70 31 6 27 9 27 190 46 30 4 64 12 75 20 10 8 35 14 55
14 41 0 62 11 58 31 -2 10 10 15 44 17 25 2 52 10 58 18 8 8 30 14 56 14 32 0
46 5 58 21 11 16 21 20 43 15 31 -7 46 0 56 27 5 12 17 17 45 17 23 0 45 6 52
15 7 8 25 15 40 15 15 0 33 6 39 14 7 8 29 17 51 21 26 4 40 13 43 26 3 10 13
22 24 25 10 3 27 9 38 13 57 22 125 41 144 41 13 0 25 9 30 23 11 28 45 52 86
59 78 14 163 56 167 83 2 15 12 21 40 23 20 2 42 10 48 18 7 8 25 14 40 14 38
0 87 26 93 50 3 13 14 20 29 20 53 0 68 57 18 66 -16 4 -30 12 -30 18 0 16
-52 54 -82 60 -40 8 -86 36 -91 56 -4 16 -14 20 -45 20 -23 0 -45 6 -52 15 -7
8 -28 15 -47 15 -19 0 -43 5 -54 10 -10 6 -61 14 -112 18 -78 6 -92 10 -91 24
2 19 -13 23 -130 33 -38 3 -77 10 -87 15 -10 6 -52 10 -94 10 -42 0 -105 8
-140 17 l-63 17 -12 78 c-7 43 -21 95 -31 116 -11 20 -19 42 -19 49 0 8 -8 16
-17 20 -29 10 -83 65 -83 85 0 11 -10 20 -27 24 -16 4 -43 20 -61 36 -18 15
-42 28 -52 28 -11 0 -20 7 -20 15 0 17 -86 65 -145 80 -29 7 -39 15 -37 27 2
12 -6 19 -25 23 -15 3 -41 11 -58 17 -16 6 -45 13 -62 15 -43 7 -44 33 -3 33
23 0 33 6 40 25 6 15 20 27 37 30 15 4 44 14 63 23 19 9 48 19 65 22 21 4 31
12 35 30 6 25 59 58 125 77 20 6 31 16 33 31 3 21 38 49 55 44 16 -5 97 53 94
67 -1 8 9 15 28 17 18 2 39 15 55 34 14 16 32 30 40 30 19 0 75 36 76 50 1 5
2 15 3 20 0 6 11 10 24 10 26 0 83 55 89 85 2 10 12 22 23 25 34 9 95 61 95
81 0 11 6 19 13 19 18 0 84 71 89 95 2 11 12 21 23 23 23 5 86 61 84 76 -3 26
2 35 22 38 20 3 29 17 75 108 7 14 22 26 33 28 13 2 23 14 28 30 3 15 15 45
26 66 12 22 23 55 26 75 5 27 12 36 31 41 21 5 26 14 33 55 17 114 25 152 35
180 6 17 14 70 17 118 6 78 9 87 24 82 16 -5 19 4 25 71 3 42 6 153 6 245 0
101 4 170 10 174 5 3 10 13 10 21 0 17 38 53 56 54 14 0 54 43 54 59 0 25 32
72 55 81 19 7 25 17 25 38 0 15 7 37 15 48 8 10 15 30 15 44 0 14 6 35 14 46
8 11 16 38 18 60 2 30 7 38 20 36 12 -2 20 8 27 35 6 21 11 46 11 55 0 9 5 20
10 23 6 3 10 26 10 49 0 25 6 48 14 55 13 11 17 31 31 171 9 86 14 100 34 100
14 0 20 10 25 42 10 60 14 395 7 508 -5 84 -8 95 -26 99 -27 5 -35 19 -35 63
0 20 -4 40 -10 43 -5 3 -10 21 -10 39 0 35 -48 91 -85 98 -11 2 -21 12 -23 23
-8 44 -39 55 -159 55 l-113 0 0 373 c0 433 -5 510 -30 502 -14 -5 -18 4 -24
56 -3 34 -6 110 -6 170 0 59 -5 120 -11 136 -10 26 -23 136 -35 293 -7 99 -11
112 -34 105 -21 -7 -25 3 -34 85 -11 100 -22 159 -33 172 -6 7 -13 31 -15 53
-2 30 -8 41 -23 44 -26 4 -35 19 -35 58 0 17 -4 35 -10 38 -5 3 -10 21 -10 39
0 19 -7 39 -15 46 -8 7 -15 21 -15 31 0 12 -10 23 -25 29 -18 7 -25 17 -25 36
0 14 -9 37 -20 51 -11 14 -20 32 -20 40 0 28 -31 73 -50 73 -12 0 -20 7 -21
18 -1 9 -2 22 -3 28 -2 19 -65 84 -81 84 -8 0 -15 9 -15 21 0 11 -13 37 -29
57 -16 20 -31 46 -33 56 -2 12 -15 23 -32 27 -38 11 -65 36 -74 73 -5 20 -15
32 -29 34 -11 2 -37 21 -58 42 -24 24 -48 40 -62 40 -13 0 -26 8 -30 18 -7 20
-53 61 -69 62 -6 0 -17 7 -24 15 -7 8 -21 15 -31 15 -12 0 -19 7 -19 20 0 13
-9 22 -27 26 -16 4 -44 17 -64 30 -20 12 -52 24 -70 26 -27 2 -35 8 -37 26 -2
13 -14 27 -27 32 -13 5 -26 14 -30 19 -3 6 -21 11 -39 11 -17 0 -36 4 -42 9
-5 5 -25 11 -44 13 -26 2 -36 8 -38 23 -2 11 -7 23 -10 27 -7 7 -64 17 -147
25 -27 3 -59 11 -70 19 -11 8 -38 14 -60 14 -46 0 -71 12 -60 30 12 19 -15 30
-72 30 -28 0 -54 4 -57 8 -3 5 -42 12 -86 15 -44 4 -89 11 -99 17 -11 5 -44
10 -73 11 -77 0 -123 11 -123 29 0 12 -22 16 -115 21 -63 4 -144 11 -180 18
-80 13 -935 13 -1000 -1z m2350 -1198 c28 -11 59 -20 69 -20 30 0 78 -29 84
-50 3 -11 13 -20 22 -20 9 0 37 -16 62 -35 25 -19 52 -35 59 -35 8 0 14 -5 14
-12 0 -19 72 -88 92 -88 12 0 18 -7 18 -22 0 -12 12 -34 26 -49 14 -15 29 -42
33 -61 5 -25 12 -33 29 -33 23 0 52 -42 52 -75 0 -26 42 -89 60 -90 16 0 35
-46 50 -115 4 -22 13 -53 19 -70 6 -16 13 -42 16 -56 3 -16 13 -29 25 -32 16
-4 20 -14 20 -44 0 -21 7 -56 15 -78 8 -22 15 -74 15 -115 1 -41 5 -111 9
-155 5 -45 5 -122 0 -176 -14 -151 -16 -334 -3 -350 6 -8 15 -36 19 -63 9 -64
15 -78 30 -72 9 3 18 -19 28 -72 9 -42 23 -108 32 -147 9 -38 19 -98 22 -132
l5 -63 -73 5 c-41 2 -117 7 -169 10 -105 6 -120 14 -120 70 0 17 -4 35 -9 41
-5 5 -11 23 -13 39 -2 23 -9 31 -26 33 -17 3 -30 17 -46 52 -29 62 -44 80 -66
80 -21 0 -73 46 -83 73 -4 10 -13 17 -20 14 -6 -2 -29 4 -49 14 -21 11 -46 19
-56 19 -11 0 -36 7 -55 15 -20 8 -60 15 -89 16 -62 1 -159 16 -115 18 15 0 27
6 27 11 0 6 -103 10 -290 10 -187 0 -290 -4 -290 -10 0 -5 24 -11 53 -12 107
-3 -247 -16 -494 -17 -141 0 -271 -4 -288 -7 l-31 -6 0 -80 c0 -67 2 -79 15
-74 8 3 15 2 16 -2 6 -62 13 -89 25 -103 7 -8 14 -22 14 -31 0 -17 43 -60 56
-56 5 1 30 -3 55 -11 47 -13 429 -11 1059 5 153 4 270 2 335 -5 161 -19 165
-20 165 -41 0 -10 -5 -22 -12 -26 -6 -4 -97 -8 -202 -10 -231 -3 -1131 -44
-1164 -53 -2 -1 -1 -10 3 -20 5 -17 -1 -20 -72 -25 -43 -4 -94 -11 -114 -16
-20 -6 -52 -10 -71 -10 -19 0 -39 -5 -45 -11 -6 -6 -26 -14 -45 -18 -22 -4
-34 -13 -36 -26 -6 -30 -50 -72 -83 -79 -19 -3 -33 -14 -38 -29 -12 -31 -67
-40 -236 -40 -161 -1 -222 10 -238 43 -7 14 -23 27 -37 28 -38 6 -90 51 -90
78 0 18 -5 24 -23 24 -12 0 -31 6 -42 14 -11 7 -40 16 -65 19 -25 3 -91 11
-148 18 -93 11 -102 14 -97 30 4 11 5 20 3 20 -7 3 -274 18 -483 28 -577 27
-715 32 -777 26 -91 -9 -128 0 -128 30 0 20 6 25 38 30 20 3 63 11 95 17 40 7
168 8 430 3 838 -19 1052 -12 1091 35 22 27 45 94 51 153 6 51 9 57 26 52 17
-6 19 -1 19 50 0 46 -3 56 -15 51 -8 -3 -18 1 -22 8 -6 11 -62 16 -243 23
-129 4 -211 9 -182 11 28 2 52 7 52 11 0 11 -807 25 -904 16 -51 -5 -76 -12
-76 -20 0 -16 -23 -25 -65 -25 -40 0 -155 -28 -173 -42 -6 -6 -27 -14 -45 -17
-23 -5 -33 -13 -35 -29 -2 -12 -9 -22 -16 -22 -7 0 -21 -9 -31 -20 -10 -11
-22 -17 -27 -14 -12 8 -59 -36 -52 -48 4 -5 -3 -19 -14 -31 -11 -12 -22 -29
-24 -37 -3 -8 -13 -15 -23 -15 -13 0 -21 -10 -25 -30 -4 -16 -12 -40 -18 -52
-7 -12 -12 -32 -12 -45 0 -54 -14 -59 -181 -69 -85 -5 -182 -12 -216 -15 l-63
-6 0 48 c0 27 5 65 11 84 6 19 13 53 16 75 2 22 9 58 14 80 6 22 15 63 21 92
7 36 14 50 23 47 9 -4 20 17 34 68 12 40 27 82 33 92 6 12 9 123 9 306 -2 326
2 374 30 365 11 -4 19 -5 20 -3 0 2 6 44 14 93 7 50 24 136 36 192 19 86 26
103 43 105 14 2 22 12 24 28 2 14 8 29 13 34 5 6 9 22 9 37 0 14 9 38 20 52
11 14 20 35 20 46 0 14 6 21 19 21 21 0 67 64 73 100 2 16 12 26 30 31 37 10
82 46 88 71 3 13 21 25 50 35 25 8 52 21 61 29 9 8 18 12 21 9 11 -11 60 15
55 29 -6 15 12 26 43 26 9 0 38 9 64 21 25 11 50 18 55 15 5 -3 26 1 47 10 54
23 410 16 466 -9 21 -9 51 -17 67 -17 16 0 32 -4 35 -9 4 -5 24 -12 46 -16 23
-4 40 -12 40 -20 0 -16 64 -55 90 -55 34 0 90 -33 90 -52 0 -10 7 -18 18 -18
9 0 32 -9 50 -20 18 -11 42 -20 54 -20 12 0 35 -4 52 -10 17 -5 48 -12 69 -15
32 -5 37 -9 32 -25 -7 -21 -9 -21 165 -42 134 -17 830 -16 945 0 44 7 106 15
138 18 46 4 57 9 57 24 0 14 15 21 78 35 42 9 84 23 92 30 8 7 26 15 40 17 15
2 26 11 28 23 5 25 40 54 66 55 25 0 66 38 66 61 0 13 11 20 38 25 20 4 48 15
61 25 13 11 41 24 63 29 27 8 38 16 36 27 -2 12 8 19 37 26 22 5 47 11 55 15
114 45 379 58 470 22z m-4920 -2700 l0 -190 24 0 c35 0 56 -26 56 -68 0 -20 3
-242 6 -492 6 -414 5 -454 -9 -442 -9 8 -17 23 -19 35 -2 16 -9 21 -25 19 -20
-3 -23 1 -23 35 -1 21 -7 49 -15 63 -8 14 -14 39 -15 57 0 17 -4 35 -10 38 -5
3 -10 26 -10 49 0 27 -6 48 -15 56 -10 8 -15 30 -15 60 0 61 -7 80 -31 80 -10
0 -19 1 -20 3 0 1 -3 34 -5 72 -3 39 -9 81 -14 95 -26 73 -29 529 -4 567 8 12
14 38 14 58 0 28 5 37 23 44 12 5 31 18 41 30 11 11 30 21 43 21 l23 0 0 -190z
m6375 180 c3 -5 15 -10 25 -10 23 0 40 -28 57 -90 6 -25 16 -63 22 -85 16 -57
4 -468 -14 -517 -8 -20 -15 -66 -16 -103 -1 -36 -6 -68 -10 -71 -5 -3 -9 -26
-9 -52 0 -51 -12 -78 -28 -68 -16 10 -32 -27 -32 -72 0 -23 -6 -45 -15 -52 -8
-7 -15 -27 -15 -45 0 -18 -7 -46 -15 -61 -8 -16 -15 -41 -15 -56 0 -21 -5 -28
-19 -28 -20 0 -51 -66 -51 -108 0 -12 -5 -22 -10 -22 -16 0 -9 1025 6 1040 6
6 29 18 50 25 l39 13 -4 175 c-2 96 -1 180 3 186 9 14 43 14 51 1z m-4833 -36
c33 -5 57 -29 44 -42 -3 -2 -67 -7 -143 -10 -88 -3 -148 -10 -165 -18 -15 -8
-43 -14 -63 -14 -20 0 -46 -5 -58 -12 -12 -7 -40 -14 -62 -17 -32 -5 -41 -11
-43 -28 -3 -18 -10 -23 -34 -23 -17 0 -49 -13 -75 -30 -24 -16 -49 -30 -55
-30 -17 0 -48 -31 -48 -49 -1 -23 -32 -59 -55 -63 -14 -2 -21 -12 -23 -35 -2
-17 -10 -37 -18 -43 -11 -10 -14 -44 -14 -159 0 -127 3 -152 20 -186 11 -22
20 -47 20 -57 0 -11 7 -18 20 -18 11 0 20 -4 20 -9 0 -4 11 -24 24 -44 13 -19
22 -38 19 -41 -9 -9 28 -46 44 -46 22 0 67 -39 73 -63 3 -12 15 -24 25 -25 11
-2 27 -10 35 -17 8 -7 38 -21 67 -30 38 -13 53 -22 55 -38 3 -23 64 -42 241
-75 68 -13 87 -20 87 -33 0 -9 7 -20 16 -23 21 -8 534 -8 602 1 44 5 52 9 47
23 -6 20 18 30 76 30 20 0 53 7 72 15 20 8 49 15 65 15 15 0 32 4 38 9 5 5 25
11 44 13 26 2 36 8 40 26 5 21 48 52 74 52 21 1 56 38 56 59 0 12 5 21 10 21
14 0 13 -63 -1 -77 -6 -6 -14 -26 -18 -45 -6 -27 -13 -35 -46 -46 -22 -7 -47
-19 -55 -27 -9 -8 -30 -18 -48 -21 -21 -4 -32 -13 -34 -28 -3 -24 -24 -29
-178 -46 -52 -5 -108 -13 -125 -16 -16 -3 -212 -8 -435 -11 -425 -6 -684 7
-917 44 -86 13 -103 19 -103 33 0 19 -60 60 -87 60 -24 0 -53 30 -53 55 0 13
-7 25 -15 28 -8 4 -17 27 -21 57 -5 36 -11 50 -20 46 -7 -3 -15 3 -18 12 -9
27 -10 804 -2 840 4 17 12 32 18 32 5 0 25 16 44 35 29 30 40 35 79 35 34 0
47 4 52 18 10 27 23 32 103 33 41 1 104 5 140 9 72 9 604 4 662 -6z m3933 5
c194 -14 215 -17 215 -33 0 -17 22 -26 65 -26 23 0 43 -9 65 -30 18 -16 38
-30 45 -30 11 0 25 -63 39 -180 5 -41 -11 -600 -20 -708 -5 -58 -9 -72 -20
-68 -9 3 -18 -3 -24 -17 -6 -12 -14 -29 -18 -37 -5 -8 -13 -24 -19 -34 -10
-21 -14 -24 -85 -56 -30 -14 -48 -28 -48 -39 0 -22 -77 -39 -234 -51 -61 -5
-163 -14 -226 -20 -148 -13 -772 -13 -915 0 -157 15 -295 32 -362 46 -13 2
-23 13 -25 27 -2 16 -11 23 -33 25 -16 2 -37 10 -46 18 -9 9 -29 19 -45 23
-15 4 -30 14 -34 22 -4 7 -16 33 -28 56 -12 23 -21 55 -21 70 2 26 2 26 6 4 5
-24 39 -60 57 -61 29 -1 85 -36 88 -54 3 -21 6 -22 132 -46 27 -5 54 -14 60
-20 5 -5 28 -10 51 -10 58 0 85 -10 85 -30 0 -13 12 -19 53 -24 67 -8 570 -8
591 0 9 3 16 14 16 23 0 14 14 20 63 29 85 14 158 31 182 42 11 5 34 11 50 12
22 2 31 9 33 25 2 15 12 25 30 29 26 6 71 25 102 44 8 5 23 11 33 14 9 3 17
13 17 23 0 20 61 73 83 73 18 0 41 26 33 38 -3 6 1 16 10 23 21 17 44 64 44
89 0 15 6 20 25 20 19 0 25 5 25 23 0 13 5 28 11 34 11 11 7 274 -6 351 -6 33
-11 42 -27 42 -23 0 -67 48 -68 73 0 23 -23 47 -44 47 -9 0 -35 14 -58 30 -26
19 -53 30 -74 30 -26 0 -33 4 -36 22 -2 18 -12 24 -45 30 -23 4 -51 12 -62 17
-11 6 -33 11 -49 11 -16 0 -49 7 -72 15 -25 9 -78 15 -129 15 -122 0 -191 10
-185 25 16 40 421 58 749 34z m-3120 -70 c11 -1 4 -5 -15 -9 -19 -5 -46 -6
-60 -3 -23 6 -23 7 -5 14 11 5 29 6 40 4 11 -3 29 -5 40 -6z m1693 2 c22 -14
-9 -20 -59 -13 l-44 7 40 6 c22 3 42 7 45 7 3 1 11 -2 18 -7z m-1552 -36 c10
-8 32 -15 47 -15 17 0 30 -7 34 -17 4 -10 17 -32 31 -50 30 -40 21 -61 -15
-33 -14 11 -31 20 -38 20 -7 0 -18 7 -25 15 -7 8 -21 15 -31 15 -12 0 -23 10
-29 25 -7 17 -17 25 -34 25 -31 0 -56 9 -56 21 0 15 95 10 116 -6z m1442 3
c-3 -7 -22 -15 -44 -18 -31 -4 -39 -9 -39 -25 0 -13 -8 -21 -22 -23 -12 -2
-27 -10 -33 -18 -7 -8 -21 -14 -31 -14 -10 0 -20 -4 -23 -9 -7 -11 -46 -21
-46 -12 0 5 11 20 24 34 14 15 26 34 28 44 2 11 14 18 32 20 15 1 38 9 50 17
26 19 110 22 104 4z m-2234 -147 c9 -7 16 -24 16 -37 0 -12 5 -26 10 -29 19
-12 12 -110 -10 -138 -11 -14 -20 -33 -20 -44 0 -22 -53 -43 -128 -50 -60 -6
-99 12 -104 49 -2 14 -12 24 -27 28 -37 9 -59 76 -43 135 7 25 12 54 12 65 0
15 7 20 29 20 17 0 33 5 37 11 10 16 207 8 228 -10z m2784 3 c14 -10 22 -25
22 -46 0 -21 6 -31 20 -35 17 -4 20 -14 20 -54 0 -42 -3 -49 -20 -49 -11 0
-20 -6 -20 -14 0 -7 -6 -19 -14 -26 -8 -6 -16 -21 -18 -33 -9 -66 -228 -60
-228 6 0 29 -19 54 -45 59 -15 2 -21 13 -25 43 -8 58 2 89 28 93 12 2 22 11
22 19 0 9 7 25 17 35 14 15 32 18 117 18 76 0 107 -4 124 -16z m-2208 -33 c0
-19 25 -31 71 -31 14 0 34 -7 45 -15 10 -8 27 -15 37 -15 28 0 77 -32 77 -50
0 -20 19 -40 39 -40 23 0 61 -41 61 -66 0 -13 4 -25 9 -28 4 -3 11 -19 15 -37
5 -25 9 -29 26 -24 19 6 20 2 20 -84 0 -82 -2 -91 -19 -91 -20 0 -31 -25 -31
-75 0 -16 -9 -43 -19 -59 -11 -17 -17 -34 -14 -39 7 -12 -27 -47 -48 -47 -10
0 -21 -5 -24 -11 -4 -5 -18 -14 -31 -19 -15 -6 -24 -18 -24 -30 0 -11 -8 -23
-17 -26 -10 -3 -31 -11 -48 -19 -29 -13 -60 -20 -135 -31 -70 -10 -80 -14 -80
-34 0 -12 -9 -22 -23 -25 -28 -8 -532 -12 -650 -6 -97 5 -103 7 -108 36 -3 16
-15 21 -59 26 -30 4 -70 11 -89 17 -19 6 -37 9 -42 7 -4 -3 -11 0 -14 5 -4 6
-18 15 -31 20 -14 6 -24 18 -24 30 0 13 -9 22 -27 26 -16 4 -41 16 -58 26 -30
18 -48 26 -72 34 -7 2 -13 10 -13 17 0 16 -75 97 -90 97 -5 0 -10 7 -10 15 0
9 -10 35 -21 58 -17 32 -22 60 -22 118 0 64 4 82 22 105 11 15 21 35 21 45 0
11 5 19 11 19 6 0 24 13 40 30 17 16 45 34 62 38 19 5 31 14 30 23 -3 18 50
49 85 49 15 0 36 7 46 15 22 17 92 20 101 6 10 -17 -19 -90 -37 -94 -16 -5
-18 -18 -18 -115 0 -120 4 -144 25 -135 9 3 16 -5 20 -24 3 -15 17 -50 30 -78
13 -27 26 -58 29 -67 3 -10 13 -18 23 -18 22 -1 93 -65 93 -85 0 -9 9 -15 22
-15 12 0 30 -7 40 -17 28 -25 99 -36 280 -40 134 -3 174 -1 203 12 21 8 48 15
61 15 13 0 24 4 24 9 0 5 9 13 20 16 11 3 20 15 20 26 0 14 7 19 25 19 27 0
90 61 90 89 0 9 9 17 21 19 23 3 41 35 69 121 27 81 16 286 -19 356 -13 27
-22 53 -20 57 9 15 24 8 24 -11z m1790 9 c0 -6 -4 -18 -9 -28 -33 -65 -43
-122 -42 -247 0 -130 42 -265 83 -265 10 0 18 -5 18 -12 0 -6 10 -27 23 -45
16 -25 32 -35 60 -39 27 -5 37 -12 37 -24 0 -18 60 -63 77 -58 4 1 29 -4 55
-11 34 -10 95 -12 220 -9 154 3 178 6 219 26 25 12 53 22 63 22 10 0 20 8 23
19 5 19 76 83 106 94 9 3 17 14 17 22 0 9 12 31 26 50 14 18 27 50 30 71 5 44
11 54 29 54 16 0 21 54 17 158 -3 62 -6 72 -22 72 -13 0 -19 10 -22 38 -3 20
-7 44 -9 52 -6 22 62 25 100 6 16 -9 39 -16 51 -16 33 0 80 -29 80 -49 0 -13
10 -21 35 -25 39 -8 75 -47 75 -82 0 -17 6 -24 19 -24 10 0 26 -12 36 -26 39
-60 9 -273 -36 -259 -15 5 -19 1 -19 -16 0 -24 -37 -89 -50 -89 -5 0 -10 -10
-12 -22 -2 -16 -11 -24 -28 -26 -13 -2 -35 -13 -48 -23 -14 -10 -42 -24 -64
-29 -31 -9 -38 -15 -33 -29 6 -20 -39 -45 -101 -57 -22 -3 -44 -10 -49 -15 -6
-4 -33 -9 -60 -11 -42 -3 -50 -6 -53 -25 -2 -12 -9 -24 -17 -27 -27 -10 -462
-17 -605 -9 -134 7 -145 10 -149 28 -5 28 -19 35 -73 35 -26 0 -50 5 -53 10
-3 6 -21 10 -38 10 -18 0 -42 6 -53 14 -11 8 -31 16 -44 18 -17 2 -26 10 -28
25 -2 15 -16 28 -40 39 -63 27 -67 30 -80 70 -7 21 -20 46 -29 56 -13 14 -16
47 -17 177 -1 116 2 163 12 172 6 7 12 21 12 30 0 23 49 81 64 76 18 -7 46 12
46 32 0 21 40 51 68 51 10 0 27 7 38 15 10 8 33 15 49 15 53 1 73 10 68 31 -4
13 0 19 11 19 9 0 16 -5 16 -10z m1380 -220 c0 -5 -4 -10 -10 -10 -5 0 -10 5
-10 10 0 6 5 10 10 10 6 0 10 -4 10 -10z m-2153 -76 c12 -8 32 -14 43 -14 11
0 24 -8 28 -17 15 -38 68 -102 84 -103 21 0 25 -26 37 -285 6 -110 14 -213 20
-230 5 -16 13 -43 18 -60 6 -20 15 -29 27 -28 12 1 24 -12 37 -41 10 -23 29
-47 41 -52 13 -6 43 -20 68 -32 25 -12 54 -22 65 -22 25 0 40 -10 48 -32 4
-11 22 -17 59 -21 49 -4 96 -11 268 -38 36 -5 210 -14 387 -19 396 -12 770 0
953 31 69 12 149 23 179 26 42 4 54 9 58 24 3 11 17 22 32 25 45 9 55 12 91
25 68 24 99 43 102 64 2 12 12 21 26 23 12 2 27 12 33 23 5 11 14 17 20 14 5
-4 9 -170 9 -421 0 -407 -2 -435 -36 -661 -3 -24 -10 -33 -23 -33 -21 0 -31
-19 -31 -60 0 -15 -7 -44 -16 -65 -8 -20 -13 -39 -10 -42 9 -10 -35 -81 -54
-86 -12 -3 -20 -14 -20 -27 0 -12 -9 -35 -21 -51 -11 -16 -25 -45 -30 -64 -7
-23 -16 -35 -28 -35 -18 0 -61 -42 -61 -61 0 -16 -38 -61 -62 -73 -12 -6 -31
-29 -42 -50 -12 -22 -28 -42 -36 -46 -44 -20 -55 -29 -58 -46 -6 -28 -53 -74
-77 -74 -24 0 -45 -18 -45 -39 0 -22 -31 -51 -55 -51 -25 0 -61 -36 -67 -65
-2 -13 -17 -24 -42 -33 -48 -15 -91 -49 -91 -70 0 -9 -9 -18 -20 -20 -27 -4
-85 -35 -85 -44 0 -5 -7 -8 -16 -8 -27 0 -93 -44 -96 -65 -2 -14 -12 -21 -33
-23 -16 -2 -37 -9 -45 -16 -23 -18 -62 -35 -90 -38 -17 -2 -26 -10 -28 -26 -4
-25 -48 -52 -85 -52 -12 0 -28 -5 -34 -11 -7 -7 -29 -15 -50 -18 -30 -5 -39
-11 -41 -29 -2 -13 -11 -26 -20 -29 -9 -3 -24 -8 -32 -11 -8 -3 -25 -7 -37 -8
-12 -2 -32 -8 -45 -15 -13 -7 -41 -15 -63 -18 -31 -5 -40 -10 -40 -26 0 -16
-9 -21 -40 -26 -22 -3 -57 -14 -78 -23 -21 -9 -42 -14 -46 -11 -5 2 -23 -3
-41 -11 -17 -9 -46 -17 -62 -18 -21 -1 -33 -8 -39 -23 -6 -16 -18 -22 -51 -25
-24 -3 -64 -10 -90 -16 -119 -29 -148 -34 -232 -39 -73 -5 -89 -9 -93 -23 -6
-23 -93 -32 -334 -31 -247 0 -326 7 -332 32 -4 16 -15 19 -74 20 -84 2 -106 4
-130 13 -10 5 -43 12 -73 17 -168 28 -195 35 -195 49 0 9 -17 19 -45 27 -25 6
-72 19 -105 28 -33 9 -79 21 -103 26 -31 8 -46 18 -52 35 -7 19 -17 24 -43 24
-18 0 -42 7 -53 15 -10 8 -30 15 -43 15 -40 0 -101 32 -101 52 0 10 -7 18 -15
18 -8 0 -34 8 -57 19 -24 10 -63 25 -88 33 -33 11 -46 21 -50 39 -4 17 -14 25
-34 27 -16 2 -46 15 -67 28 -21 13 -47 24 -56 24 -25 0 -47 16 -39 28 6 11
-52 52 -74 52 -7 0 -29 13 -50 30 -21 16 -47 30 -59 30 -12 0 -24 8 -28 18 -8
22 -54 61 -73 62 -24 1 -65 37 -65 57 0 11 -12 22 -32 28 -47 16 -91 51 -95
77 -2 13 -11 24 -23 27 -35 6 -74 41 -83 74 -6 23 -16 33 -39 39 -33 9 -73 54
-73 82 0 10 -9 16 -24 16 -16 0 -31 12 -50 40 -14 22 -26 46 -26 53 0 18 -21
37 -41 37 -18 0 -49 40 -49 64 0 28 -41 86 -61 86 -13 0 -19 7 -19 24 0 14 -9
41 -21 60 -11 19 -18 40 -14 45 3 6 -2 22 -11 35 -9 14 -16 41 -17 61 -1 27
-5 35 -19 35 -10 0 -20 9 -23 23 -37 166 -38 168 -42 655 -4 410 -3 482 9 482
8 0 19 -5 25 -11 6 -6 22 -17 35 -23 12 -6 24 -22 26 -34 2 -12 9 -22 16 -22
8 0 19 -7 26 -15 7 -8 21 -15 31 -15 10 0 33 -6 51 -14 18 -8 49 -17 69 -21
24 -3 38 -12 42 -24 3 -14 17 -20 58 -24 30 -3 74 -10 99 -16 25 -5 68 -12 95
-15 28 -3 84 -10 125 -17 100 -15 971 -15 1095 1 50 6 131 15 180 20 50 4 106
13 125 19 19 6 54 11 77 11 36 0 43 3 43 20 0 14 7 20 23 20 12 0 40 9 62 20
22 11 46 20 55 20 18 1 60 34 60 48 0 23 36 71 55 74 25 4 31 34 49 253 25
291 29 315 56 315 13 0 20 7 20 19 0 10 11 33 25 52 13 19 29 44 34 57 7 14
19 22 34 22 13 0 29 6 35 12 27 27 227 28 269 2z m-417 -144 c0 -5 -4 -10 -10
-10 -5 0 -10 5 -10 10 0 6 5 10 10 10 6 0 10 -4 10 -10z m-599 -3485 c44 -14
92 -23 154 -30 17 -1 33 -3 37 -4 4 0 5 -8 2 -16 -6 -15 8 -20 76 -28 19 -3
73 -10 120 -16 47 -7 121 -17 165 -23 49 -6 189 -8 360 -5 282 6 424 15 525
35 30 6 72 14 93 17 28 5 37 10 33 21 -5 14 6 18 74 28 67 9 145 28 154 37 6
5 25 9 43 9 l33 0 0 -62 c0 -35 7 -94 15 -133 8 -38 15 -84 15 -102 0 -44 9
-63 30 -63 15 0 19 -12 25 -60 4 -33 11 -63 16 -66 5 -3 9 -14 9 -24 0 -13 9
-21 28 -25 15 -3 51 -17 80 -31 29 -13 61 -24 71 -24 32 0 51 -11 51 -30 0
-14 9 -20 33 -22 43 -4 52 -43 13 -58 -18 -6 -26 -17 -26 -33 0 -14 -9 -36
-21 -51 -11 -14 -25 -42 -30 -61 -6 -22 -16 -35 -26 -35 -21 0 -63 -39 -63
-59 0 -19 -39 -61 -58 -61 -8 0 -30 -11 -48 -25 -18 -14 -42 -25 -54 -25 -11
0 -23 -8 -27 -17 -9 -26 -55 -62 -79 -63 -12 0 -27 -7 -34 -15 -7 -8 -19 -15
-26 -15 -8 0 -19 -11 -24 -24 -7 -19 -18 -25 -52 -29 -24 -3 -68 -10 -98 -15
-125 -23 -222 -32 -345 -32 -71 0 -135 -4 -141 -8 -7 -4 -13 -16 -15 -27 -3
-11 -14 -21 -26 -23 -22 -3 -71 -68 -65 -86 5 -14 -60 -76 -80 -76 -11 0 -18
-7 -18 -19 0 -11 -3 -26 -6 -35 -9 -24 -40 -2 -47 34 -4 19 -13 30 -24 30 -20
0 -63 38 -63 57 0 19 -41 73 -55 73 -17 0 -48 37 -41 49 13 21 -31 32 -214 51
-52 6 -108 15 -124 20 -16 6 -48 10 -72 10 -52 0 -74 8 -68 24 3 8 -17 16 -63
25 -68 12 -142 31 -218 55 -26 9 -39 19 -37 28 1 11 -9 17 -36 22 -21 3 -47
15 -57 26 -10 11 -29 20 -42 20 -27 0 -73 44 -73 70 0 21 -23 42 -41 38 -19
-4 -63 92 -78 172 -5 26 -11 35 -26 35 -15 0 -20 7 -20 25 0 21 5 26 33 28 23
2 32 8 32 22 0 19 19 30 51 30 10 0 40 11 67 24 26 14 59 27 75 31 16 3 27 12
27 22 0 9 7 24 14 32 13 14 22 55 25 109 1 6 10 12 21 12 26 0 26 3 46 245 9
112 10 116 42 109 15 -3 48 -12 73 -19z"/>
<path d="M4690 6550 c0 -5 5 -10 10 -10 6 0 10 5 10 10 0 6 -4 10 -10 10 -5 0
-10 -4 -10 -10z"/>
<path d="M6330 5530 c0 -5 5 -10 10 -10 6 0 10 5 10 10 0 6 -4 10 -10 10 -5 0
-10 -4 -10 -10z"/>
<path d="M3670 4770 c0 -6 32 -10 75 -10 43 0 75 4 75 10 0 6 -32 10 -75 10
-43 0 -75 -4 -75 -10z"/>
<path d="M7050 4770 c0 -5 25 -10 56 -10 34 0 53 4 49 10 -3 6 -28 10 -56 10
-27 0 -49 -4 -49 -10z"/>
<path d="M4105 4030 c-16 -4 -51 -8 -77 -9 -60 -1 -78 -9 -78 -32 0 -13 -7
-19 -23 -19 -13 0 -44 -13 -69 -29 -25 -16 -54 -31 -64 -33 -11 -2 -20 -13
-22 -27 -2 -14 -11 -35 -19 -47 -11 -17 -13 -39 -10 -81 11 -114 17 -127 63
-121 l29 3 -4 92 c-4 108 0 112 82 93 29 -6 76 -17 104 -23 43 -9 52 -14 47
-29 -6 -19 1 -21 86 -33 92 -13 136 -22 170 -33 19 -6 57 -14 83 -17 36 -5 47
-10 43 -21 -6 -16 9 -20 99 -28 33 -4 80 -10 105 -15 82 -18 332 -41 503 -48
156 -6 211 -16 135 -26 -18 -2 37 -4 122 -4 85 0 145 2 133 4 -59 11 -8 21
150 27 176 7 369 26 512 51 44 8 99 17 123 20 24 4 42 12 42 20 0 14 31 25 73
25 16 0 38 5 49 11 19 10 74 22 168 35 73 10 78 13 73 33 -4 16 2 21 34 26 21
3 54 13 73 20 19 8 55 16 80 17 l45 3 5 -70 5 -70 40 0 40 0 3 69 c2 39 -2 74
-8 80 -5 5 -10 19 -10 31 0 25 -18 45 -41 45 -9 0 -28 9 -42 20 -14 11 -39 23
-56 26 -21 5 -31 12 -31 25 0 20 -13 24 -100 33 -30 3 -76 9 -103 12 -31 4
-52 2 -62 -6 -18 -15 -20 -56 -3 -67 14 -8 76 -18 168 -29 77 -8 90 -13 68
-25 -10 -6 -18 -19 -18 -29 0 -12 -8 -21 -22 -24 -13 -2 -50 -9 -83 -16 -33
-6 -76 -16 -95 -23 -19 -6 -55 -13 -80 -16 -36 -5 -46 -10 -48 -27 -3 -19 -15
-22 -125 -38 -67 -9 -142 -21 -167 -26 -25 -6 -72 -12 -105 -15 -128 -12 -147
-16 -141 -30 2 -7 -3 -15 -12 -17 -52 -14 -857 -16 -995 -3 -58 5 -75 10 -71
20 6 14 -6 16 -136 30 -30 3 -77 10 -105 15 -27 5 -93 14 -145 21 -52 7 -104
13 -115 15 -11 1 -28 3 -38 3 -13 1 -17 6 -12 20 5 17 0 21 -32 26 -21 3 -59
12 -84 20 -26 8 -59 15 -75 15 -15 0 -41 4 -58 10 -17 5 -48 12 -69 15 -36 6
-38 8 -35 38 3 31 5 32 63 39 185 21 205 29 189 75 -8 24 -15 28 -49 30 -22 0
-53 -2 -70 -7z"/>
<path d="M3780 9860 c0 -5 5 -10 10 -10 6 0 10 5 10 10 0 6 -4 10 -10 10 -5 0
-10 -4 -10 -10z"/>
<path d="M2020 5200 c0 -5 5 -10 10 -10 6 0 10 5 10 10 0 6 -4 10 -10 10 -5 0
-10 -4 -10 -10z"/>
</g>
</svg>
